<?xml version="1.0" encoding="UTF-8" standalone="no"?>
<svg width="20px" height="11px" viewBox="0 0 20 11" version="1.1" xmlns="http://www.w3.org/2000/svg" xmlns:xlink="http://www.w3.org/1999/xlink">
    <!-- Generator: Sketch 43.2 (39069) - http://www.bohemiancoding.com/sketch -->
    <title>arrowb</title>
    <desc>Created with Sketch.</desc>
    <defs></defs>
    <g id="Page-1" stroke="none" stroke-width="1" fill="none" fill-rule="evenodd">
        <g id="Single-Book" transform="translate(-18.000000, -52.000000)" fill="#2C2604">
            <path d="M36.9448052,56.8888465 L20.086577,56.8888465 L23.9323259,53.0430975 C24.1709665,52.804457 24.1709665,52.417621 23.9323259,52.1789804 C23.6936854,51.9403399 23.3065438,51.9403399 23.0679032,52.1789804 L18.1789804,57.0679032 C17.9403399,57.3065438 17.9403399,57.6933798 18.1789804,57.9320204 C18.1795915,57.9326315 18.1802026,57.932937 18.1808138,57.9332426 L23.0682088,62.8209432 C23.1873763,62.9401107 23.3438218,63 23.5002674,63 C23.6567129,63 23.8131584,62.9401107 23.9323259,62.8209432 C24.1709665,62.5823027 24.1709665,62.1951611 23.9323259,61.9565205 L20.0868825,58.1110772 L36.9448052,58.1110772 C37.2821408,58.1110772 37.5559205,57.8372975 37.5559205,57.4999618 C37.5559205,57.1626261 37.2821408,56.8888465 36.9448052,56.8888465" id="arrowb"></path>
        </g>
    </g>
</svg>