<?xml version="1.0" encoding="UTF-8" standalone="no"?>
<svg width="19px" height="16px" viewBox="0 0 19 16" version="1.1" xmlns="http://www.w3.org/2000/svg" xmlns:xlink="http://www.w3.org/1999/xlink">
    <!-- Generator: Sketch 43.2 (39069) - http://www.bohemiancoding.com/sketch -->
    <title>menu</title>
    <desc>Created with Sketch.</desc>
    <defs></defs>
    <g id="Page-1" stroke="none" stroke-width="1" fill="none" fill-rule="evenodd">
        <g id="Books" transform="translate(-18.000000, -49.000000)" fill="#2C2604">
            <g id="menu" transform="translate(18.000000, 49.000000)">
                <path d="M0.730769231,1.45454545 L18.2692308,1.45454545 C18.6729808,1.45454545 19,1.12872727 19,0.727272727 C19,0.325818182 18.6729808,0 18.2692308,0 L0.730769231,0 C0.327384615,0 0,0.325818182 0,0.727272727 C0,1.12872727 0.327384615,1.45454545 0.730769231,1.45454545" id="Fill-1"></path>
                <path d="M18.2692308,7.27272727 L0.730769231,7.27272727 C0.327384615,7.27272727 0,7.59854545 0,8 C0,8.40145455 0.327384615,8.72727273 0.730769231,8.72727273 L18.2692308,8.72727273 C18.6729808,8.72727273 19,8.40145455 19,8 C19,7.59854545 18.6729808,7.27272727 18.2692308,7.27272727" id="Fill-3"></path>
                <path d="M18.2692308,14.5454545 L0.730769231,14.5454545 C0.327384615,14.5454545 0,14.8712727 0,15.2727273 C0,15.6741818 0.327384615,16 0.730769231,16 L18.2692308,16 C18.6729808,16 19,15.6741818 19,15.2727273 C19,14.8712727 18.6729808,14.5454545 18.2692308,14.5454545" id="Fill-5"></path>
            </g>
        </g>
    </g>
</svg>